# xmcd
#
# Track frame offsets:
# 150
# 31726
# 48801
# 80824
#
# Disc length: 1205 seconds
#
#
# Revision: 0
# Processed by: cddbd v1.5.1PL2 Copyright (c) Steve Scherf et al.
# Submitted via: FreeRIP 2.942 
#
DISCID=2504b304
DTITLE=Woelv - Gris
DYEAR=2006
DGENRE=
TTITLE0=La cordillere des hommes
TTITLE1="Pour Vancouver et ailleurs"
TTITLE2="Gris"
TTITLE3=Le ventre de sa mere
EXTD=
EXTT0=
EXTT1=
EXTT2=
EXTT3=
PLAYORDER=
